<svg xmlns="http://www.w3.org/2000/svg" width="38.499" height="44.784" viewBox="0 0 38.499 44.784">
  <g id="bulp.svg" transform="translate(0 0)">
    <path id="_001-green-energy" data-name="001-green-energy" d="M46.883,6.193a.656.656,0,1,0,1.136-.656L46.45,2.819a.656.656,0,0,0-1.136.656Zm-7.16,12.4H36.585a.656.656,0,0,0,0,1.312h3.138a.656.656,0,0,0,0-1.312ZM55.178,4.45a.656.656,0,0,0,.656-.656V.656a.656.656,0,1,0-1.312,0V3.794A.656.656,0,0,0,55.178,4.45Zm7.4,1.983a.657.657,0,0,0,.9-.24l1.569-2.718a.656.656,0,0,0-1.136-.656L62.338,5.537A.656.656,0,0,0,62.578,6.433ZM73.772,18.593H70.634a.656.656,0,0,0,0,1.312h3.138a.656.656,0,0,0,0-1.312ZM71.849,9.625a.656.656,0,0,0-.9-.24l-2.718,1.569a.656.656,0,0,0,.656,1.136l2.718-1.569a.656.656,0,0,0,.24-.9ZM55.178,6.88h0a12.364,12.364,0,0,0-4.606.881.656.656,0,1,0,.487,1.219,11.057,11.057,0,0,1,4.119-.788h0A11.067,11.067,0,0,1,61.6,28.28a7.682,7.682,0,0,0-3.215,5.582H55.834V28.007a1.229,1.229,0,0,0,.222-.174l3.767-3.766a6.811,6.811,0,0,0,0-9.634l-3.767-3.766a1.243,1.243,0,0,0-1.756,0l-3.767,3.766a6.811,6.811,0,0,0,0,9.634L54.3,27.833a1.225,1.225,0,0,0,.222.174v5.855H51.971A7.533,7.533,0,0,0,48.81,28.32a11.068,11.068,0,0,1,.133-18.215A.656.656,0,1,0,48.2,9.02a12.38,12.38,0,0,0-.149,20.373A6.22,6.22,0,0,1,50.665,34a1.786,1.786,0,0,0-1.108,1.65v1.127a1.774,1.774,0,0,0,.4,1.127,1.774,1.774,0,0,0-.4,1.127v1.127a1.786,1.786,0,0,0,1.785,1.783h.651v1.437A1.41,1.41,0,0,0,53.4,44.784h3.555a1.41,1.41,0,0,0,1.408-1.408V41.939h.651A1.786,1.786,0,0,0,60.8,40.156V39.028a1.774,1.774,0,0,0-.4-1.127,1.774,1.774,0,0,0,.4-1.127V35.646A1.786,1.786,0,0,0,59.692,34a6.367,6.367,0,0,1,2.671-4.647A12.379,12.379,0,0,0,55.178,6.88ZM51.46,23.139a5.5,5.5,0,0,1,0-7.779l3.718-3.717L58.9,15.36a5.5,5.5,0,0,1,0,7.779L55.834,26.2V23.491l1.515-1.514a.656.656,0,0,0-.928-.928l-.587.587v-.781l1.515-1.514a.656.656,0,1,0-.928-.928L55.834,19V17.492a.656.656,0,1,0-1.312,0v2.386l-.587-.587a.656.656,0,0,0-.928.928l1.515,1.514v.781l-.587-.587a.656.656,0,0,0-.928.928l1.515,1.514V26.2Zm5.591,20.237a.1.1,0,0,1-.1.1H53.4a.1.1,0,0,1-.1-.1V41.939h3.747Zm2.436-6.6a.472.472,0,0,1-.472.471H57.8a.656.656,0,1,0,0,1.312h1.213a.472.472,0,0,1,.472.471v1.127a.472.472,0,0,1-.472.471H51.341a.472.472,0,0,1-.473-.471V39.028a.472.472,0,0,1,.473-.471h3.837a.656.656,0,1,0,0-1.312H51.341a.472.472,0,0,1-.473-.471V35.646a.472.472,0,0,1,.473-.471h7.674a.472.472,0,0,1,.472.471v1.127ZM42.122,10.953,39.4,9.384a.656.656,0,0,0-.656,1.136l2.718,1.569a.656.656,0,1,0,.656-1.136Z" transform="translate(-35.929)" fill="#dea64c"/>
  </g>
</svg>

