<svg id="loading.svg" xmlns="http://www.w3.org/2000/svg" width="91.86" height="80.378" viewBox="0 0 91.86 80.378">
  <g id="Group_21" data-name="Group 21">
    <path id="Path_16" data-name="Path 16" d="M91.567,108.441c-.262-.514-6.559-12.674-19.045-19.89a68.567,68.567,0,0,0-17.268-7.33,9.888,9.888,0,0,0-1.677-2.9,68.73,68.73,0,0,0,2.3-18.642c0-14.432-7.37-25.971-7.684-26.455a2.693,2.693,0,0,0-4.517,0c-.314.484-7.684,12.023-7.684,26.455a68.735,68.735,0,0,0,2.3,18.641,9.891,9.891,0,0,0-1.677,2.9,68.572,68.572,0,0,0-17.268,7.33C6.853,95.768.555,107.927.294,108.441a2.691,2.691,0,0,0,.067,2.568C1.2,112.46,2.6,112.376,3.8,112.376c3.724,0,15.018-.544,25.481-6.592A68.6,68.6,0,0,0,44.264,94.472a9.82,9.82,0,0,0,3.333,0,68.594,68.594,0,0,0,14.981,11.312h0c10.464,6.048,21.758,6.592,25.481,6.592,1.208,0,2.6.087,3.441-1.367A2.692,2.692,0,0,0,91.567,108.441ZM26.59,101.124A46.954,46.954,0,0,1,7.649,106.8,47.022,47.022,0,0,1,22.032,93.211a67.03,67.03,0,0,1,14.207-6.328,10.016,10.016,0,0,0,2.935,5.081A67.076,67.076,0,0,1,26.59,101.124ZM45.93,89.232a4.56,4.56,0,1,1,4.559-4.515A4.565,4.565,0,0,1,45.93,89.232Zm2.93-14.067a9.9,9.9,0,0,0-5.859,0,67.226,67.226,0,0,1-1.63-15.485,47.1,47.1,0,0,1,4.564-19.267A46.959,46.959,0,0,1,50.49,59.681,67.219,67.219,0,0,1,48.86,75.165Zm16.411,25.959a67.064,67.064,0,0,1-12.584-9.159,10.069,10.069,0,0,0,2.935-5.081,67.038,67.038,0,0,1,14.207,6.328A47.028,47.028,0,0,1,84.211,106.8,46.958,46.958,0,0,1,65.271,101.124Z" transform="translate(0 -31.999)" fill="#fff"/>
  </g>
</svg>
