<svg id="option.svg" xmlns="http://www.w3.org/2000/svg" width="41" height="40" viewBox="0 0 41 40">
  <g id="Group_28" data-name="Group 28" transform="translate(-327 -669)">
    <path id="Icon_ionic-ios-settings" data-name="Icon ionic-ios-settings" d="M23.872,15.057a2.717,2.717,0,0,1,1.743-2.535,10.77,10.77,0,0,0-1.3-3.14,2.753,2.753,0,0,1-1.105.236A2.711,2.711,0,0,1,20.727,5.8a10.737,10.737,0,0,0-3.134-1.3,2.715,2.715,0,0,1-5.07,0,10.77,10.77,0,0,0-3.14,1.3A2.711,2.711,0,0,1,6.9,9.619,2.664,2.664,0,0,1,5.8,9.383a11.008,11.008,0,0,0-1.3,3.145,2.716,2.716,0,0,1,.005,5.07,10.77,10.77,0,0,0,1.3,3.14,2.712,2.712,0,0,1,3.58,3.58,10.833,10.833,0,0,0,3.14,1.3,2.71,2.71,0,0,1,5.059,0,10.77,10.77,0,0,0,3.14-1.3,2.715,2.715,0,0,1,3.58-3.58,10.833,10.833,0,0,0,1.3-3.14A2.73,2.73,0,0,1,23.872,15.057Zm-8.765,4.393a4.4,4.4,0,1,1,4.4-4.4A4.4,4.4,0,0,1,15.107,19.451Z" transform="translate(333.075 674.333)" fill="#fff"/>
  </g>
  <g id="Rectangle_40" data-name="Rectangle 40" fill="none" stroke="#fff" stroke-width="1">
    <rect width="41" height="40" rx="10" stroke="none"/>
    <rect x="0.5" y="0.5" width="40" height="39" rx="9.5" fill="none"/>
  </g>
</svg>
