<svg xmlns="http://www.w3.org/2000/svg" width="35.338" height="8.101" viewBox="0 0 35.338 8.101">
  <g id="Arrow" transform="translate(0 0.002)">
    <path id="Path_18" data-name="Path 18" d="M17.59,132.9l16.317-5.65" transform="translate(-16.378 -126.029)" fill="#fff"/>
    <path id="Path_19" data-name="Path 19" d="M9.374,125.451,25.69,119.8a1.239,1.239,0,0,0,.846-1.491,1.224,1.224,0,0,0-1.491-.846L8.73,123.113a1.239,1.239,0,0,0-.846,1.491,1.224,1.224,0,0,0,1.491.846Z" transform="translate(-7.84 -117.41)" fill="#fff"/>
    <path id="Path_20" data-name="Path 20" d="M167.447,132.94l-16.317-5.65" transform="translate(-133.321 -126.064)" fill="#fff"/>
    <path id="Path_21" data-name="Path 21" d="M159.219,123.158,142.9,117.506a1.213,1.213,0,1,0-.645,2.338l16.317,5.651a1.213,1.213,0,0,0,.645-2.338Z" transform="translate(-124.771 -117.449)" fill="#fff"/>
  </g>
</svg>
